<?xml version="1.0" encoding="utf-8"?>
<!-- Generator: Adobe Illustrator 24.1.0, SVG Export Plug-In . SVG Version: 6.00 Build 0)  -->
<svg version="1.1" id="Layer_1" xmlns="http://www.w3.org/2000/svg" xmlns:xlink="http://www.w3.org/1999/xlink" x="0px" y="0px"
	 viewBox="0 0 1024 1024" style="enable-background:new 0 0 1024 1024;" xml:space="preserve">
<style type="text/css">
	.st0{clip-path:url(#SVGID_2_);fill:url(#Gradient_1_);}
	.st1{clip-path:url(#Clipping_Mask_1_);fill-rule:evenodd;clip-rule:evenodd;fill:#FFFFFF;}
	.st2{fill:#FFFFFF;}
</style>
<g id="Background">
	<defs>
		<path id="SVGID_1_" d="M844,1024H180C80.6,1024,0,943.4,0,844V180C0,80.6,80.6,0,180,0h664c99.4,0,180,80.6,180,180v664
			C1024,943.4,943.4,1024,844,1024z"/>
	</defs>
	<clipPath id="SVGID_2_">
		<use xlink:href="#SVGID_1_"  style="display:none;overflow:visible;"/>
	</clipPath>
	
		<linearGradient id="Gradient_1_" gradientUnits="userSpaceOnUse" x1="512" y1="-1436" x2="512" y2="-412" gradientTransform="matrix(1 0 0 -1 0 -412)">
		<stop  offset="0" style="stop-color:#020094"/>
		<stop  offset="1" style="stop-color:#2A3EFF"/>
	</linearGradient>
	<rect id="Gradient" class="st0" width="1024" height="1024"/>
</g>
<g id="Logo_1_">
	<g id="Logo_Filler">
		<defs>
			<path id="Clipping_Mask" d="M640.3,669.8l78.2-119.2c0,0,24.2,18.1,39.6,18.1c16.8,0,38.3-18.1,38.3-18.1l105.1,162.5
				c30.9-59.8,47.3-125.6,47.3-197.4c0-241.7-196.1-437.5-437.5-437.5S74.9,273,74.9,514.4C74.9,698,188.7,854.5,349.2,919
				l229-357.6L640.3,669.8z"/>
		</defs>
		<clipPath id="Clipping_Mask_1_">
			<use xlink:href="#Clipping_Mask"  style="overflow:visible;"/>
		</clipPath>
		<path id="Logo_2_" class="st1" d="M391.9,186c-109,2.6-192.5,78.9-165.4,195.9c0,0.1,0.2,0.2,0.2,0.4
			c3.2,40.3,36.7,72.1,77.9,72.1c43.2,0,78.3-35,78.3-78.2c0-38.2-27.2-70-63.2-76.9c-14.4-5.1-35.9-16.6-35-35.2
			c0.4-9.2,11.2-25.9,28.5-34.4c21-9.8,42.6-15.1,64.4-10.7c33.1,6.1,117.7,66.9,124.3,172.2c3.8,79.9-41.1,187.9-85,239.1
			c-70.7,80.8-184.2,130.9-173.1,139.8c10,8.9,144-52.4,213.8-129.3c85.2-92.3,127.4-169.2,123.3-262.6
			C578.4,284.7,506,183.4,391.9,186z M647.9,596.6V425.7l-58.1,56.9l-19.1-19.5l72.5-71L570.6,319l19.3-19.2l57.9,58.3V195.2
			l107.8,124.7l-73.8,72.4l73.5,74L647.9,596.6z M675.1,424.2v96.6l43.6-52.8L675.1,424.2z M675.1,268.4v92.4l43.3-42.4L675.1,268.4
			z"/>
	</g>
	<path id="MoonAndMountains" class="st2" d="M953.5,515.7c0-243.7-198.4-441.8-441.8-441.8c-118.2,0-229,45.7-312.2,128.9
		c-83,82.9-129,193.7-129,311.6c0,89.6,26.9,175.9,77.9,249.1C197.8,835,266.9,890.4,347.5,923l3.4,1.3l51.4-79.9
		c59.4-88.6,153.1-223.6,174.6-231.7c11.1-0.7,23.2,24.5,55.7,68.5L455.9,949.8h0.3c43-62.4,240.1-346.1,268.9-367.6
		c11.8,4.7,22.8,9.4,32.9,9.4c9.7,0,17.5-3.7,31.6-9.4c19.8,16.5,66.1,68.5,112.5,141c7.1-13.1,13.1-27.2,18.5-41.3
		C942.4,629.8,953.5,573.8,953.5,515.7z M797.7,543.9l-3.7,3.4c-0.3,0.3-20.8,16.8-35.6,16.8c-11.4,0-30.6-12.4-36.9-17.1l-3.7-3
		l-76.9,117.2L578.8,553L347.5,913.5c-77.9-31.9-144-85.6-191.7-154.8c-49.7-72.2-76.2-156.5-76.2-244.4
		c0-115.8,45-224.3,126.2-305.5s190-126.2,305.9-126.2c238.7,0,433.1,194.4,433.1,433.1c0,66.5-14.4,129.9-43.6,188.7L797.7,543.9z"
		/>
</g>
</svg>
