<?xml version="1.0" encoding="utf-8"?>
<!-- Generator: Adobe Illustrator 24.1.2, SVG Export Plug-In . SVG Version: 6.00 Build 0)  -->
<svg version="1.1" id="Layer_1" xmlns="http://www.w3.org/2000/svg" xmlns:xlink="http://www.w3.org/1999/xlink" x="0px" y="0px"
	 viewBox="0 0 1024 1024" style="enable-background:new 0 0 1024 1024;" xml:space="preserve">
<style type="text/css">
	.st0{fill:none;}
</style>
<line class="st0" x1="382" y1="388" x2="443" y2="388"/>
<path d="M495.5,360.5c-3.8-7.3-10.1-12.2-18.8-14.4c-6.1-1.6-7.6-2.3-9.2-5c-2.2-3.5-5.8-5.7-11.3-6.8l-3.8-0.7l5.5-3.1
	c10-5.7,18.1-14.3,23.3-24.6c2.2-4.5,5.4-13.3,5.4-15.3c0-1.5-2.1-0.7-2.7,1c-1.1,3.1-8.7,14.2-10,14.7c-1.4,0.5-1.8-2-0.5-2.8
	c0.5-0.3,0.8-3.6,0.7-7.3c-0.3-12.9-7.4-22.6-21.4-29.1c-7-3.2-8.6-3.6-18.9-4c-9.8-0.4-12.2-0.2-18.4,1.9
	c-9.2,3-16.8,8.1-21.8,14.8c-4.9,6.5-6.4,11.8-5.7,19.7l0.6,6l-2.9-3.5c-1.6-1.9-3.9-5.4-5-7.8c-2.6-5.1-4.5-5.7-3.4-1
	c0.8,3.6,5.5,15,6.5,15.8c0.4,0.3,1,1.5,1.4,2.8c1.1,3.6,12.9,14.7,19.1,18.1c3.1,1.7,7.8,3.8,10.6,4.7l5,1.7l-5.3,3.5
	c-9.9,6.5-12.2,9.6-23.7,31.7c-2.5,4.8-8.6,17.7-8.6,17.7h62h25c0,0-3-13-9.8-14.1c-3.6-0.6-9.6-7.3-9.6-11.7c0-2.8,0.3-3.3,2.4-3.3
	c1.3,0,4-1.1,6-2.5c9.8-6.7,24,1.1,34.7,19.1c1.9,3.3,4,5.7,4.5,5.4c0.5-0.3,0.9-4.1,0.9-8.6C498,366.7,497.5,364.4,495.5,360.5z
	 M391.7,287.2c3.4-9.2,12.7-17,24.3-20.5c26.5-7.9,55.9,7.2,55.8,28.7c-0.1,14.7-9,23.6-28,27.9c-9.2,2.1-17,2-26-0.4
	c-13.5-3.5-22-9-25.7-16.5C388.9,299.8,388.8,294.9,391.7,287.2z M402.3,326.1c-5.5-3.8-13.2-11.7-16.4-16.9c-3.5-5.7-3-5.9,2.3-0.7
	c17.9,17.5,41.3,22.6,64.8,14.2c7.1-2.5,15.1-7.8,21.8-14.2c4.9-4.7,6.3-4.9,2.8-0.3c-1.1,1.4-2,3-2,3.5s-3,3.9-6.7,7.6
	c-4.5,4.5-9,7.9-13.8,10.2c-6.3,3.1-8.2,3.6-16.1,3.8c-4.9,0.2-10.5,0.6-12.4,0.9C421,335.1,410.1,331.5,402.3,326.1z M385.4,387
	c2.6-6.8,16.4-32.5,17.2-33.6c9-12,21.5-18.5,35.5-18.5c3.9,0,4,0.2,1.1,4.3c-1.8,2.5-2.3,4.8-2.6,11.2c-0.3,7.6-0.1,8.5,3.3,15.3
	c4.9,9.7,5.6,15.8,2.4,20.2c-0.2,0.3-0.4,0.6-0.6,0.9H385.4z M459.3,380.5c-0.4-3.2-0.3-3.3,1.9-2.4c2.7,1.3,4.1,3.3,5.5,8.8h-8.2
	c0-0.1,0.1-0.2,0.1-0.3C459.2,385.2,459.5,382.4,459.3,380.5z M496.1,369.7c-0.2,0.2-1.7-1.8-3.2-4.4c-3.6-6.2-8.8-11.1-14.2-13.6
	c-5-2.2-14.6-3.5-15.5-2c-0.4,0.6,1.6,1.2,4.7,1.5c9.1,0.9,17.6,6.4,22.2,14.4c2.8,4.9,2.7,7.1-0.2,2.6c-2.9-4.5-10.7-11.5-15-13.3
	c-7.1-3.2-14-2.9-18.1,0.6c-4.9,4.2-8.4,2.8-8.4-3.3c0-2.3-0.4-3.2-1.2-2.9c-0.7,0.2-1.1,1.5-1,2.8c1.6,17,1.6,16.9,6.8,22.3
	c2.7,2.8,4.5,5.6,4.5,7.1c0,1.3-0.6,3.4-1.5,5.6h-11.2c1.2-3.7,2.3-12.7-5.8-26c-4.2-6.9,0-21.6,6-23.7c3-1,13.1-0.6,15.6,0.7
	c2.8,1.5,5.9,4.2,5.9,5.2c0,1.4-2.8,0.8-3.4-0.7c-0.7-1.7-9.1-2.1-10.1-0.5c-0.3,0.5,0.5,2.1,1.9,3.5c1.4,1.4,2.5,3,2.5,3.5
	c0,1.4,1.8,1.2,4.6-0.7c5.9-3.8,22.3,1,28.4,8.4C493.2,360,497,368.7,496.1,369.7z M461.5,344.9c0,0.6-0.7,1-1.4,1
	c-1.6,0-3.1-1.8-2.2-2.7C458.7,342.4,461.5,343.7,461.5,344.9z"/>
</svg>
